<?xml version="1.0" encoding="utf-8"?>
<!-- Generator: Adobe Illustrator 28.0.0, SVG Export Plug-In . SVG Version: 6.00 Build 0)  -->
<svg version="1.1" id="Layer_1" xmlns="http://www.w3.org/2000/svg" xmlns:xlink="http://www.w3.org/1999/xlink" x="0px" y="0px"
	 viewBox="0 0 799.1 176.7" style="enable-background:new 0 0 799.1 176.7;" xml:space="preserve">
<style type="text/css">
	.st0{fill:#FFFFFF;}
	.st1{enable-background:new    ;}
</style>
<path d="M285.3,13h26.5c1.7,0,3,1.3,3,3v18.7c0,1.7-1.3,3-3,3h-26.5c-1.7,0-3-1.3-3-3V16C282.3,14.4,283.7,13,285.3,13z"/>
<path class="st0" d="M311.8,16v18.7h-26.5V16H311.8 M311.8,10h-26.5c-3.3,0-6,2.7-6,6v18.7c0,3.3,2.7,6,6,6h26.5c3.3,0,6-2.7,6-6V16
	C317.8,12.7,315.1,10,311.8,10L311.8,10z"/>
<g>
	<path d="M274.1,173.7c-3.2,0-6.4-0.2-8.6-0.5c-1.5-0.2-2.5-1.5-2.5-3v-20.6c0-0.9,0.4-1.8,1.1-2.4c0.5-0.4,1.2-0.6,1.9-0.6
		c0.2,0,0.5,0,0.7,0.1c1.7,0.4,4.4,0.6,7.7,0.6c7.2,0,8.7-5.9,8.7-10.9v-14.5c-8.4,9.4-21.4,14.4-37.6,14.4c-17.4,0-30.9-6.3-39-18
		v12.8c0,1.7-1.3,3-3,3h-25.2c-1.7,0-3-1.3-3-3V78.2c0-5.2-1.4-13.8-10.8-13.8c-10,0-11.4,9-11.4,14.3v52.4c0,1.7-1.3,3-3,3h-25.2
		c-1.7,0-3-1.3-3-3V78.2c0-5.2-1.4-13.8-10.6-13.8c-10.1,0-11.6,10.4-11.6,16.6v50.1c0,1.7-1.3,3-3,3H6c-1.7,0-3-1.3-3-3v-19.2
		c0-0.7,0.2-1.3,0.7-1.9l36-45.1H8.4c-1.7,0-3-1.3-3-3V42.7c0-1.7,1.3-3,3-3h87c0.9,0,1.8,0.4,2.3,1.1c0.6,0.7,0.8,1.6,0.6,2.5v0.2
		c5.5-3.8,12.9-5.9,21.6-5.9c9.8,0,18.8,3.8,24.6,10.3c5.9-6.5,15.4-10.3,26.4-10.3c16.3,0,28.1,8.1,33,22c7.8-14.3,22.4-22,42.2-22
		c16.3,0,29,5.9,36.9,16.9V42.7c0-1.7,1.3-3,3-3h25.2c1.7,0,3,1.3,3,3V56c8.2-11.9,21.9-18.3,39.8-18.3c16.9,0,30.1,6.6,38,18.5V6
		c0-1.7,1.3-3,3-3h25.2c1.7,0,3,1.3,3,3v33.5c0,0.1,0,0.2,0,0.2l-0.3,3.8c5.4-3.7,12.6-5.8,20.4-5.8c18.9,0,32.8,8.2,39.9,23.3
		c7.7-15.1,22.8-23.3,43.3-23.3c18.3,0,32.4,6.5,40.7,18.5V42.7c0-1.7,1.3-3,3-3h26.9c1,0,1.9,0.5,2.4,1.2c0.3,0.4,0.4,0.8,0.5,1.2
		c4.9-3,11-4.7,17.6-4.7s11.9,0.8,15.7,2.2c1.3,0.5,2.1,1.9,1.9,3.3l-0.9,5.8c8.3-7.3,19.7-11.1,33.5-11.1c19.3,0,33.9,8.6,41,24
		c7.4-15.4,22.2-24,41.8-24c25.1,0,42.3,14.6,44.8,38c0.1,0.8-0.2,1.7-0.8,2.3c-0.6,0.6-1.4,1-2.2,1h-26.3c-1.5,0-2.8-1.2-3-2.7
		c-0.8-7.5-5.5-12-12.5-12c-9.2,0-14.8,8.7-14.8,22.7s5.7,22.5,14.8,22.5c6.1,0,10.3-4.3,11.1-11.5c0.2-1.5,1.5-2.7,3-2.7H791
		c0.8,0,1.7,0.4,2.2,1s0.8,1.5,0.8,2.3c-2.4,23.2-19.2,37.5-44,37.5c-18.2,0-32.5-7.9-40.2-21.8c-7.5,13.9-22.7,21.8-42.8,21.8
		c-14.6,0-26.7-4.6-35-13.2s-12.7-21.1-12.7-36.2c0-8.2,1.3-15.6,3.8-22.1c-1.9-0.4-3.8-0.6-5.6-0.6c-12.2,0-19.3,8.8-19.3,24.2
		v42.7c0,1.7-1.3,3-3,3H570c-1.7,0-3-1.3-3-3v-13.3c-8.3,12-22.4,18.5-40.7,18.5c-20.6,0-35.8-8.3-43.4-23.5
		c-7.2,15.1-21.4,23.5-40.1,23.5c-7.1,0-13.3-1.6-18.2-4.5c-0.1,0.4-0.2,0.7-0.5,1c-0.6,0.8-1.5,1.3-2.5,1.3H395c-1.7,0-3-1.3-3-3
		v-10.5c-8.4,10.1-21.9,15.7-38.6,15.7s-31-6.4-39.2-18.2v18.1C314.2,159.7,299.2,173.7,274.1,173.7L274.1,173.7z M439.7,61
		c-10.5,0-16.5,9.4-16.5,25.7c0,7.8,1.6,26.1,16,26.1s16.7-18.2,16.7-26.1S454.3,61,439.7,61L439.7,61z M652.8,95.4
		c1.2,7.5,4.8,17.1,15.8,17.1c7.5,0,12.7-4,14.2-10.9c0.3-1.4,1.5-2.3,2.9-2.3h18.6c-0.2-1.3-0.4-2.6-0.6-3.9
		C703.9,95.4,652.8,95.4,652.8,95.4z M339.2,95.4c1.2,7.5,4.8,17.1,15.8,17.1c7.5,0,12.7-4,14.2-10.9c0.3-1.4,1.5-2.3,2.9-2.3H392
		v-3.9L339.2,95.4L339.2,95.4z M231.2,95.4c1.2,7.5,4.8,17.1,15.8,17.1c7.5,0,12.7-4,14.2-10.9c0.3-1.4,1.5-2.3,2.9-2.3H283v-3.9
		C283,95.4,231.2,95.4,231.2,95.4z M526.4,63.2c-10.6,0-16.7,8.7-16.7,23.9s6.1,23.7,16.7,23.7s16.9-8.6,16.9-23.7
		S537.1,63.2,526.4,63.2z M68.4,108.9V71.5l-30.2,37.4H68.4z M680.8,74.6c-1.1-6.5-4.5-13-13.5-13c-8.3,0-12,6.5-13.7,13H680.8z
		 M367.1,74.6c-1.1-6.5-4.5-13-13.5-13c-8.3,0-12,6.5-13.7,13H367.1L367.1,74.6z M259.2,74.6c-1.1-6.5-4.5-13-13.5-13
		c-8.3,0-12,6.5-13.7,13H259.2z"/>
	<path class="st0" d="M420.1,6v33.5l-0.9,11h0.3c4.8-6.1,13.6-9.9,23.6-9.9c20.6,0,34.6,10.4,39.8,28.6c5.7-18.3,21-28.6,43.4-28.6
		c22.4,0,37.9,10.3,43.7,28.6V42.7h26.9l-3.1,9h0.5c4.2-7,12.9-11.2,23.1-11.2c5.6,0,11,0.7,14.6,2l-2.5,16.1
		c7.5-11.6,20.6-18,38-18c21.4,0,35.9,10.8,41,29.6c5.4-18.7,20.3-29.6,41.8-29.6c23.5,0,39.4,13.4,41.8,35.4h-26.3
		c-1-9-7-14.6-15.5-14.6c-10.9,0-17.8,9.9-17.8,25.7s7,25.5,17.8,25.5c7.7,0,13.1-5.4,14.1-14.1h26.3c-2.2,21.6-17.8,34.8-41,34.8
		c-20,0-34.2-9.7-40.2-26.2c-5.5,16.6-21,26.2-42.7,26.2c-28,0-44.7-17.3-44.7-46.4c0-9.3,1.7-17.4,5-24c-3.1-1-6.6-1.6-9.8-1.6
		c-14.1,0-22.3,10.2-22.3,27.2v42.7h-25.2v-26.3c-5.8,18.2-21.2,28.5-43.7,28.5s-37.8-10.4-43.5-28.8c-5.3,18.3-19.4,28.8-40,28.8
		c-10.9,0-19.5-4.1-23.6-10.9h-0.5l3.1,8.7H395V110c-6.3,14.8-21.2,23.4-41.6,23.4c-21.6,0-36.5-10.3-42.2-28.4v31.3
		c0,21.6-13.6,34.5-37.1,34.5c-2.9,0-6-0.2-8.2-0.5v-20.6c2.2,0.5,5.3,0.7,8.3,0.7c7.5,0,11.7-5.1,11.7-13.9v-24.2
		c-6.8,13.4-21.2,21.1-40.6,21.1c-21.4,0-36.2-10.1-42-27.9v25.7h-25.2v-53c0-10.5-5.1-16.8-13.8-16.8S150,67.7,150,78.8v52.4h-25.2
		v-53c0-10.5-5.1-16.8-13.6-16.8c-9.2,0-14.6,7.1-14.6,19.6v50.1H6v-19.2l40-50H8.4V42.7h87l-2.2,10.2h0.5
		c4.2-7.8,13.8-12.2,26.2-12.2c10.4,0,19.4,4.4,24.5,11.9h0.3c4.9-7.5,14.6-11.9,26.2-11.9c18.4,0,30,10.7,32.1,28.9
		c5.6-18.4,20.7-28.9,43-28.9c20.1,0,34.1,9.5,39.9,26.3V42.7h25.2V69c5.7-18.1,20.8-28.3,42.8-28.3s35.9,10.8,41,29.6V6H420.1
		 M439.2,115.8c12.4,0,19.7-10.9,19.7-29.1S451.7,58,439.7,58s-19.5,10.7-19.5,28.7S427.1,115.8,439.2,115.8 M650,77.6h34.2
		c-0.8-12.1-6.8-19-16.8-19C658,58.5,651.8,65.5,650,77.6 M336.3,77.6h34.2c-0.9-12.1-6.8-19-16.8-19
		C344.3,58.5,338.2,65.5,336.3,77.6 M228.4,77.6h34.2c-0.9-12.1-6.8-19-16.8-19C236.3,58.5,230.2,65.5,228.4,77.6 M526.4,113.8
		c12.6,0,19.9-10,19.9-26.7s-7.3-26.9-19.9-26.9s-19.7,10-19.7,26.9S514,113.8,526.4,113.8 M32,111.9h39.4V63L32,111.9 M668.7,115.5
		c8.8,0,15.3-4.9,17.2-13.3h22.3c-0.8-3.1-1.3-6.4-1.6-9.9h-57.2C650.6,107,657.6,115.5,668.7,115.5 M355,115.5
		c8.8,0,15.3-4.9,17.2-13.3H395v-9.9h-59.2C337,107,344,115.5,355,115.5 M247.1,115.5c8.8,0,15.3-4.9,17.2-13.3H286v-9.9h-58.1
		C229,107,236,115.5,247.1,115.5 M790.9,98.5L790.9,98.5 M420.1,0h-25.2c-3.3,0-6,2.7-6,6v41.7c-8.5-8.5-20.5-13-35-13
		c-12.1,0-22.5,2.8-30.9,8.4c-2.1,1.4-4.1,3-6,4.8v-5.1c0-3.3-2.7-6-6-6h-25c-3.3,0-6,2.7-6,6v4c-1.6-1.5-3.4-2.9-5.3-4.2
		c-7.9-5.2-17.5-7.9-28.6-7.9c-18.2,0-32.7,6.6-41.6,18.7c-6.2-11.9-18-18.7-33.5-18.7c-10.5,0-19.9,3.3-26.4,9
		c-6.4-5.8-15.1-9-24.7-9c-7.6,0-14.3,1.5-19.8,4.3l0,0c-1.1-1.4-2.9-2.2-4.7-2.2h-87c-3.3,0-6,2.7-6,6V62c0,3.3,2.7,6,6,6h25.1
		L1.3,108.2C0.4,109.3,0,110.6,0,112v19.2c0,3.3,2.7,6,6,6h90.6c3.3,0,6-2.7,6-6V81c0-6.2,1.5-13.6,8.6-13.6c5,0,7.6,3.6,7.6,10.8
		v52.9c0,3.3,2.7,6,6,6H150c3.3,0,6-2.7,6-6V78.8c0-11.3,6.4-11.3,8.4-11.3c5.2,0,7.8,3.6,7.8,10.8v52.9c0,3.3,2.7,6,6,6h25.2
		c3.3,0,6-2.7,6-6v-4.8c8.8,8.4,21.2,13,36,13c13.9,0,25.8-3.8,34.6-10.6v7.7c0,7.9-4,7.9-5.7,7.9c-4.1,0-6.1-0.3-7-0.5
		c-0.5-0.1-0.9-0.1-1.4-0.1c-1.3,0-2.7,0.4-3.7,1.3c-1.4,1.1-2.3,2.9-2.3,4.7v20.6c0,3,2.2,5.5,5.1,5.9c2.4,0.4,5.7,0.6,9.1,0.6
		c26.6,0,43.1-15.5,43.1-40.5v-10c8.8,8.5,21.2,13.2,36.2,13.2s26.8-4,35.6-11.4v3.2c0,3.3,2.7,6,6,6h26.9c1.4,0,2.8-0.5,3.8-1.4
		c4.9,2.3,10.8,3.6,17.2,3.6c17.9,0,31.9-7.3,40.2-20.4c3.1,4.7,7.1,8.7,11.9,11.9c8.5,5.6,19,8.5,31.4,8.5s22.9-2.8,31.4-8.4
		c2.3-1.5,4.4-3.2,6.3-5v5.2c0,3.3,2.7,6,6,6h25.2c3.3,0,6-2.7,6-6V88.5c0-9.7,2.8-21.2,16.3-21.2c0.5,0,1,0,1.6,0.1
		c-1.9,5.9-2.8,12.5-2.8,19.6c0,32.3,19.4,52.4,50.7,52.4c11.9,0,22.2-2.6,30.6-7.8c4.9-3,9-6.8,12.2-11.4
		c8.6,12.3,22.7,19.1,40.2,19.1c12.8,0,23.9-3.7,32.2-10.8c8.3-7.1,13.4-17.2,14.7-29.3c0-0.3,0.1-0.5,0.1-0.8c0-3.3-2.7-6-6-6
		h-26.3c-3,0-5.6,2.3-6,5.3c-0.3,2.7-1.7,8.8-8.2,8.8c-8.7,0-11.8-10.1-11.8-19.5s3.1-19.7,11.8-19.7c7.4,0,9.1,5.8,9.5,9.3
		c0.3,3,2.9,5.3,6,5.3h26.3c1.7,0,3.3-0.7,4.5-2c1.1-1.3,1.7-3,1.5-4.7c-1.3-12.3-6.6-22.6-15.1-29.8c-8.4-7.1-19.7-10.9-32.7-10.9
		c-18.6,0-33.2,7.4-41.7,20.8c-8.3-13.3-22.7-20.8-41.1-20.8c-11.5,0-21.5,2.6-29.5,7.5c-0.1-2.3-1.6-4.4-3.8-5.2
		c-5.6-2.1-12.9-2.4-16.8-2.4c-6.1,0-11.8,1.3-16.6,3.7c-1.1-0.9-2.5-1.5-4-1.5h-26.9c-3.3,0-6,2.7-6,6V48c-1.9-1.8-4-3.5-6.3-5
		c-8.5-5.6-19.1-8.4-31.4-8.4s-22.8,2.8-31.3,8.5c-4.8,3.2-8.7,7.1-11.9,11.8c-8.1-13-22.1-20.3-40-20.3c-6.2,0-12.1,1.2-17.1,3.5V6
		C426.1,2.7,423.4,0,420.1,0L420.1,0L420.1,0z M439.1,109.8c-11.8,0-13-16.1-13-23.1S427.4,64,439.7,64s13.2,15.9,13.2,22.7
		S451.5,109.8,439.1,109.8L439.1,109.8L439.1,109.8z M657.7,71.6c2-4.7,5.2-7,9.5-7c2,0,7.2,0,9.6,7H657.7z M344.1,71.6
		c2-4.7,5.2-7,9.5-7c2,0,7.2,0,9.6,7H344.1z M236.1,71.6c2-4.7,5.2-7,9.6-7c2,0,7.2,0,9.6,7H236.1z M526.4,107.8
		c-11.9,0-13.7-13-13.7-20.7s1.8-20.9,13.7-20.9s13.9,13.1,13.9,20.9S538.5,107.8,526.4,107.8L526.4,107.8z M44.5,105.9L65.4,80
		v25.9H44.5z M656.5,98.4h24.7c-0.6,0.7-1,1.6-1.3,2.6c-1.2,5.5-5.3,8.6-11.3,8.6C661.5,109.5,658,104.3,656.5,98.4L656.5,98.4
		L656.5,98.4z M342.8,98.4h24.7c-0.6,0.7-1,1.6-1.3,2.6c-1.2,5.5-5.3,8.6-11.3,8.6C347.8,109.5,344.4,104.3,342.8,98.4L342.8,98.4
		L342.8,98.4z M234.9,98.4h24.7c-0.6,0.7-1,1.6-1.3,2.6c-1.2,5.5-5.3,8.6-11.3,8.6C239.9,109.5,236.4,104.3,234.9,98.4L234.9,98.4
		L234.9,98.4z"/>
</g>
<g class="st1">
	<path class="st0" d="M650.1,155.2h-2.7l1.6-6.1h3L650.1,155.2z"/>
</g>
<g class="st1">
	<path class="st0" d="M686.7,155.2H684l1.6-6.1h3L686.7,155.2z"/>
</g>
<g class="st1">
	<path class="st0" d="M756.4,155.2h-2.7l1.6-6.1h3L756.4,155.2z"/>
</g>
<g>
	<g class="st1">
		<path class="st0" d="M615.9,148.9v2.9h-3v15.3h3v2.9H610v-21.1L615.9,148.9L615.9,148.9z"/>
		<path class="st0" d="M623,161.5h-0.7v-1.9h0.7c0.8,0,1.4-0.5,1.4-1.2c0-0.8-0.6-1.3-1.5-1.3c-1,0-1.7,0.5-1.7,1.5h-3.9
			c0-2.9,2.1-4.6,5.6-4.6c3.4,0,5.5,1.5,5.5,4c0,1.2-0.6,2.1-1.5,2.5l0,0c1.2,0.3,1.9,1.3,1.9,2.8c0,2.7-2.1,4.3-5.8,4.3
			c-3.8,0-6-1.8-6-4.7h3.9c0,1.1,0.8,1.7,2.1,1.7c1.2,0,1.9-0.6,1.9-1.5C624.8,162.1,624.1,161.5,623,161.5z"/>
	</g>
	<g class="st1">
		<path class="st0" d="M638.5,163L638.5,163l3.8-8.7h3.9v13h-3.8V161h-0.1l-2.8,6.2h-2l-2.8-6.2h-0.1v6.2h-3.8v-13h3.9L638.5,163z"
			/>
	</g>
	<g class="st1">
		<path class="st0" d="M665.5,154.3v13h-3.8v-7.6h-0.1l-5.7,7.6h-3.8v-13h3.8v7.6l0,0l5.7-7.6H665.5z"/>
	</g>
	<g class="st1">
		<path class="st0" d="M682.7,154.3v13h-3.8v-7.6h-0.1l-5.7,7.6h-3.8v-13h3.8v7.6l0,0l5.7-7.6H682.7z M674.6,150.4
			c0,0.7,0.5,1.2,1.3,1.2s1.3-0.5,1.3-1.2h2.1c0,1.6-1.4,2.6-3.5,2.6s-3.5-1-3.5-2.6H674.6z"/>
	</g>
	<g class="st1">
		<path class="st0" d="M702,154.3v13h-3.8v-7.6h-0.1l-5.7,7.6h-3.8v-13h3.8v7.6l0,0l5.7-7.6H702z"/>
	</g>
	<g class="st1">
		<path class="st0" d="M705.9,161.2v-5.1c0-4.3,2.6-6.9,7-6.9c1.2,0,2.4-0.2,3.1-0.7l1.2,2.9c-0.7,0.6-2.2,0.9-4.1,0.9
			c-2,0-3.2,1-3.3,2.8l-0.1,1.2h0.1c0.8-0.8,1.9-1.3,3.1-1.3c3.4,0,5.5,2.3,5.5,6.2c0,4-2.4,6.4-6.4,6.4
			C708.2,167.6,705.9,165.2,705.9,161.2z M712.2,164.5c1.4,0,2.2-1.2,2.2-3.3c0-2-0.9-3.2-2.3-3.2c-1.4,0-2.2,1.2-2.2,3.2
			C709.8,163.3,710.7,164.5,712.2,164.5z"/>
	</g>
	<g class="st1">
		<path class="st0" d="M735.5,160.8c0,4.3-2.6,6.8-6.9,6.8c-4.3,0-6.9-2.5-6.9-6.8s2.5-6.8,6.9-6.8
			C732.9,154,735.5,156.5,735.5,160.8z M728.6,164.7c1.9,0,3-1.5,3-3.9c0-2.5-1.1-3.9-3-3.9s-3,1.5-3,3.9S726.7,164.7,728.6,164.7z
			 M729,150.1h3.8l-2.6,2.7h-2.9L729,150.1z"/>
	</g>
	<g class="st1">
		<path class="st0" d="M752.7,160.8c0,4.2-2.3,6.8-6.3,6.8c-1.5,0-2.8-0.5-3.5-1.4h-0.1l0.1,1.6v4.9h-3.8v-18.4h4.1l-0.5,1.3h0.1
			c0.6-1,1.9-1.6,3.5-1.6C750.3,153.9,752.7,156.5,752.7,160.8z M745.9,165c1.8,0,2.9-1.6,2.9-4.2c0-2.7-1.1-4.3-3-4.3
			c-1.8,0-2.9,1.6-2.9,4.3C742.9,163.4,744,165,745.9,165z"/>
	</g>
	<g class="st1">
		<path class="st0" d="M771.8,154.3v13H768v-7.6l0,0l-5.7,7.6h-3.8v-13h3.8v7.6l0,0l5.7-7.6H771.8z"/>
	</g>
	<g class="st1">
		<path class="st0" d="M779.5,164.4h5v-10.1h3.8v10.1h2.1v5.5h-3.8v-2.6h-10.9v-13h3.8L779.5,164.4L779.5,164.4z"/>
		<path class="st0" d="M797.6,169.9h-5.9V167h3v-15.3h-3v-2.9h5.9V169.9z"/>
	</g>
</g>
</svg>
